<svg xmlns="http://www.w3.org/2000/svg" version="1.1" xmlns:xlink="http://www.w3.org/1999/xlink" xmlns:svgjs="http://svgjs.dev/svgjs" width="1000" height="159" viewBox="0 0 1000 159"><g transform="matrix(1,0,0,1,-0.6060423750544714,0.04491041523438355)"><svg viewBox="0 0 396 63" data-background-color="#fafafa" preserveAspectRatio="xMidYMid meet" height="159" width="1000" xmlns="http://www.w3.org/2000/svg" xmlns:xlink="http://www.w3.org/1999/xlink"><g id="tight-bounds" transform="matrix(1,0,0,1,0.23999279410486452,-0.017794692828715597)"><svg viewBox="0 0 395.52 63.0355893856574" height="63.0355893856574" width="395.52"><g><svg viewBox="0 0 467.24602843780036 74.46685070460252" height="63.0355893856574" width="395.52"><g transform="matrix(1,0,0,1,0,10.291728281171551)"><svg viewBox="0 0 395.52 53.88339414225942" height="53.88339414225942" width="395.52"><g id="textblocktransform"><svg viewBox="0 0 395.52 53.88339414225942" height="53.88339414225942" width="395.52" id="textblock"><g><svg viewBox="0 0 395.52 53.88339414225942" height="53.88339414225942" width="395.52"><g transform="matrix(1,0,0,1,0,0)"><svg width="395.52" viewBox="0.550000011920929 -34.79999923706055 293.83001708984375 40.70000076293945" height="53.88339414225942" data-palette-color="#f60f49"><g class="undefined-text-0" data-fill-palette-color="primary" id="text-0"><path d="M8.45-34.25L8.45-4.55Q8.45-1.6 7.73 0.3 7 2.2 5.48 3.48 3.95 4.75 1.3 5.9L1.3 5.9 0.55 3.8Q2.65 2.75 3.7 1.7 4.75 0.65 5.15-0.8 5.55-2.25 5.55-4.7L5.55-4.7 5.55-34.25 8.45-34.25ZM28.7-34.8Q34.55-34.8 37.92-30.3 41.3-25.8 41.3-17.1L41.3-17.1Q41.3-8.55 37.92-4 34.55 0.55 28.7 0.55L28.7 0.55Q24.9 0.55 22.05-1.43 19.2-3.4 17.62-7.38 16.05-11.35 16.05-17.05L16.05-17.05Q16.05-22.75 17.62-26.75 19.2-30.75 22.05-32.77 24.9-34.8 28.7-34.8L28.7-34.8ZM28.7-32.3Q24.2-32.3 21.65-28.55 19.1-24.8 19.1-17.05L19.1-17.05Q19.1-9.4 21.67-5.68 24.25-1.95 28.7-1.95L28.7-1.95Q33.3-1.95 35.8-5.65 38.3-9.35 38.3-17.1L38.3-17.1Q38.3-24.85 35.77-28.58 33.25-32.3 28.7-32.3L28.7-32.3ZM69.45 0L66.15 0 58.2-15.45 57.4-15.4 52.1-15.4 52.1 0 49.2 0 49.2-34.25 56.25-34.25Q67.85-34.25 67.85-24.95L67.85-24.95Q67.85-21.45 66.07-19.18 64.3-16.9 61-16L61-16 69.45 0ZM56.6-17.8Q60.7-17.8 62.75-19.55 64.8-21.3 64.8-24.95L64.8-24.95Q64.8-28.45 62.8-30.15 60.8-31.85 56.15-31.85L56.15-31.85 52.1-31.85 52.1-17.8 56.6-17.8ZM82.04-34.25Q88.54-34.25 92.52-30.65 96.49-27.05 96.49-17.4L96.49-17.4Q96.49-7.7 92.47-3.85 88.44 0 82.54 0L82.54 0 75.79 0 75.79-34.25 82.04-34.25ZM82.44-31.8L78.69-31.8 78.69-2.4 82.69-2.4Q87.44-2.4 90.44-5.65 93.44-8.9 93.44-17.4L93.44-17.4Q93.44-23.35 91.89-26.53 90.34-29.7 87.97-30.75 85.59-31.8 82.44-31.8L82.44-31.8ZM124.39 0L121.39 0 118.69-9.4 105.84-9.4 103.14 0 100.29 0 110.54-34.25 114.14-34.25 124.39 0ZM112.29-31.85L106.54-11.85 117.99-11.85 112.29-31.85ZM150.59-34.25L150.59 0 146.79 0 132.49-31Q132.89-26.4 132.89-19.35L132.89-19.35 132.89 0 130.14 0 130.14-34.25 133.94-34.25 148.24-3.2Q147.84-9.2 147.84-13.3L147.84-13.3 147.84-34.25 150.59-34.25Z" fill="#f60f49" data-fill-palette-color="primary"></path><path d="M175.84 0L172.94 0 172.94-16.8 158.39-16.8 158.39 0 155.49 0 155.49-34.25 158.39-34.25 158.39-19.25 172.94-19.25 172.94-34.25 175.84-34.25 175.84 0ZM205.69 0L202.69 0 199.99-9.4 187.14-9.4 184.44 0 181.59 0 191.84-34.25 195.44-34.25 205.69 0ZM193.59-31.85L187.84-11.85 199.29-11.85 193.59-31.85ZM231.69 0L228.39 0 220.44-15.45 219.64-15.4 214.34-15.4 214.34 0 211.44 0 211.44-34.25 218.49-34.25Q230.09-34.25 230.09-24.95L230.09-24.95Q230.09-21.45 228.31-19.18 226.54-16.9 223.24-16L223.24-16 231.69 0ZM218.84-17.8Q222.94-17.8 224.99-19.55 227.04-21.3 227.04-24.95L227.04-24.95Q227.04-28.45 225.04-30.15 223.04-31.85 218.39-31.85L218.39-31.85 214.34-31.85 214.34-17.8 218.84-17.8ZM258.28 0L254.98 0 247.03-15.45 246.23-15.4 240.93-15.4 240.93 0 238.03 0 238.03-34.25 245.08-34.25Q256.68-34.25 256.68-24.95L256.68-24.95Q256.68-21.45 254.91-19.18 253.13-16.9 249.83-16L249.83-16 258.28 0ZM245.43-17.8Q249.53-17.8 251.58-19.55 253.63-21.3 253.63-24.95L253.63-24.95Q253.63-28.45 251.63-30.15 249.63-31.85 244.98-31.85L244.98-31.85 240.93-31.85 240.93-17.8 245.43-17.8ZM264.63-34.25L267.53-34.25 267.53 0 264.63 0 264.63-34.25ZM284.58-34.8Q287.38-34.8 289.45-33.85 291.53-32.9 293.48-31L293.48-31 291.83-29.25Q290.08-30.85 288.4-31.58 286.73-32.3 284.63-32.3L284.63-32.3Q281.83-32.3 280.08-30.7 278.33-29.1 278.33-26.5L278.33-26.5Q278.33-23.9 279.88-22.38 281.43-20.85 285.48-19.45L285.48-19.45Q290.08-17.85 292.23-15.65 294.38-13.45 294.38-9.35L294.38-9.35Q294.38-6.55 293.1-4.28 291.83-2 289.48-0.73 287.13 0.55 284.08 0.55L284.08 0.55Q278.28 0.55 274.13-3.75L274.13-3.75 275.78-5.45Q277.68-3.7 279.58-2.83 281.48-1.95 284.03-1.95L284.03-1.95Q287.33-1.95 289.38-3.93 291.43-5.9 291.43-9.25L291.43-9.25Q291.43-11.3 290.75-12.65 290.08-14 288.53-15.03 286.98-16.05 284.18-17.05L284.18-17.05Q279.48-18.7 277.43-20.83 275.38-22.95 275.38-26.4L275.38-26.4Q275.38-28.75 276.55-30.68 277.73-32.6 279.83-33.7 281.93-34.8 284.58-34.8L284.58-34.8Z" fill="#130912" data-fill-palette-color="secondary"></path></g></svg></g></svg></g></svg></g></svg></g><g transform="matrix(1,0,0,1,408.240576155528,0)"><svg viewBox="0 0 59.00545228227234 74.46685070460252" height="74.46685070460252" width="59.00545228227234"><g><svg xmlns="http://www.w3.org/2000/svg" xmlns:xlink="http://www.w3.org/1999/xlink" version="1.1" x="0" y="0" viewBox="-250.70001220703125 140.98709106445312 63.399993896484375 80.01290893554688" enable-background="new -269 131 100 100" xml:space="preserve" height="74.46685070460252" width="59.00545228227234" class="icon-icon-0" data-fill-palette-color="accent" id="icon-0"><path d="M-200.1 163.7l-1-0.8c-1.2-1-3.1-0.6-3.8 0.8-0.3 0.7-0.6 7.7-0.6 8.9 0 0.2 0 0.6 0 0.7 0 1-0.9 1.8-1.9 1.6-0.8-0.1-1.4-0.9-1.4-1.7-0.1-12-3.7-20.4-10.5-26.7-4.1-3.8-9-7.2-10.5-4.6-0.4 0.7 0.2 2.2 0.9 4.1 1.4 4.3-2.9 11.2-9 18.1-5.7 6.5-12.8 14.5-12.8 26.4 0 16 15.1 30.5 31.7 30.5 16.6 0 31.7-14.5 31.7-30.5C-187.3 180.4-192.1 170.4-200.1 163.7zM-219 215.2c-7.2 0-13.1-5.9-13.1-13.1 0-3.6 1.4-6.8 3.8-9.2l7.2-8.6c1.1-1.3 3.2-1.3 4.3 0l7.2 8.6c2.3 2.4 3.8 5.6 3.8 9.2C-205.9 209.3-211.8 215.2-219 215.2z" fill="#e77917" data-fill-palette-color="accent"></path></svg></g></svg></g></svg></g><defs></defs></svg><rect width="395.52" height="63.0355893856574" fill="none" stroke="none" visibility="hidden"></rect></g></svg></g></svg>